P2
3 4
255
255
254
253
252
251
250
249
248
247
246
245
244
